<svg width="339" height="111" viewBox="0 0 339 111" fill="none" xmlns="http://www.w3.org/2000/svg">
<path fill-rule="evenodd" clip-rule="evenodd" d="M55.5 111C86.1518 111 111 86.1518 111 55.5C111 24.8482 86.1518 0 55.5 0C24.8482 0 0 24.8482 0 55.5C0 86.1518 24.8482 111 55.5 111ZM55.5 75.5745C66.5868 75.5745 75.5745 66.5868 75.5745 55.5C75.5745 44.4132 66.5868 35.4255 55.5 35.4255C44.4132 35.4255 35.4255 44.4132 35.4255 55.5C35.4255 66.5868 44.4132 75.5745 55.5 75.5745Z" fill="#A3C1AD"/>
<path d="M134.08 33V6.92H141.44C143.44 6.92 145.24 7.17333 146.84 7.68C148.44 8.18667 149.813 8.97333 150.96 10.04C152.107 11.08 152.987 12.4133 153.6 14.04C154.213 15.6667 154.52 17.6 154.52 19.84C154.52 22.08 154.213 24.0267 153.6 25.68C152.987 27.3333 152.12 28.7067 151 29.8C149.88 30.8667 148.533 31.6667 146.96 32.2C145.413 32.7333 143.68 33 141.76 33H134.08ZM139.96 28.24H141.08C142.2 28.24 143.213 28.0933 144.12 27.8C145.027 27.5067 145.8 27.04 146.44 26.4C147.08 25.7333 147.573 24.8667 147.92 23.8C148.293 22.7333 148.48 21.4133 148.48 19.84C148.48 18.2933 148.293 17 147.92 15.96C147.573 14.8933 147.08 14.0533 146.44 13.44C145.8 12.8 145.027 12.3467 144.12 12.08C143.213 11.8133 142.2 11.68 141.08 11.68H139.96V28.24ZM170.071 33.48C168.311 33.48 166.697 33.1733 165.231 32.56C163.791 31.92 162.551 31.0133 161.511 29.84C160.471 28.6667 159.657 27.24 159.071 25.56C158.511 23.88 158.231 21.9733 158.231 19.84C158.231 17.7067 158.511 15.8133 159.071 14.16C159.657 12.48 160.471 11.08 161.511 9.96C162.551 8.81333 163.791 7.94667 165.231 7.36C166.697 6.74667 168.311 6.44 170.071 6.44C171.831 6.44 173.431 6.74667 174.871 7.36C176.337 7.94667 177.591 8.81333 178.631 9.96C179.671 11.1067 180.471 12.52 181.031 14.2C181.617 15.8533 181.911 17.7333 181.911 19.84C181.911 21.9733 181.617 23.88 181.031 25.56C180.471 27.24 179.671 28.6667 178.631 29.84C177.591 31.0133 176.337 31.92 174.871 32.56C173.431 33.1733 171.831 33.48 170.071 33.48ZM170.071 28.4C171.857 28.4 173.271 27.64 174.311 26.12C175.351 24.5733 175.871 22.48 175.871 19.84C175.871 17.2267 175.351 15.1867 174.311 13.72C173.271 12.2533 171.857 11.52 170.071 11.52C168.284 11.52 166.871 12.2533 165.831 13.72C164.791 15.1867 164.271 17.2267 164.271 19.84C164.271 22.48 164.791 24.5733 165.831 26.12C166.871 27.64 168.284 28.4 170.071 28.4ZM197.094 33.48C193.708 33.48 191.121 32.48 189.334 30.48C187.548 28.48 186.654 25.2933 186.654 20.92V6.92H192.574V21.52C192.574 24.08 192.961 25.8667 193.734 26.88C194.508 27.8933 195.628 28.4 197.094 28.4C198.561 28.4 199.694 27.8933 200.494 26.88C201.294 25.8667 201.694 24.08 201.694 21.52V6.92H207.374V20.92C207.374 25.2933 206.494 28.48 204.734 30.48C203.001 32.48 200.454 33.48 197.094 33.48ZM224.936 33.48C223.149 33.48 221.469 33.2 219.896 32.64C218.349 32.0533 217.003 31.2 215.856 30.08C214.709 28.96 213.803 27.5733 213.136 25.92C212.496 24.24 212.176 22.3067 212.176 20.12C212.176 17.96 212.509 16.04 213.176 14.36C213.843 12.6533 214.749 11.2133 215.896 10.04C217.069 8.86667 218.429 7.97333 219.976 7.36C221.523 6.74667 223.163 6.44 224.896 6.44C226.789 6.44 228.416 6.78667 229.776 7.48C231.136 8.17333 232.243 8.96 233.096 9.84L230.016 13.6C229.349 13.0133 228.643 12.52 227.896 12.12C227.149 11.72 226.216 11.52 225.096 11.52C224.083 11.52 223.149 11.72 222.296 12.12C221.469 12.4933 220.749 13.04 220.136 13.76C219.523 14.48 219.043 15.36 218.696 16.4C218.376 17.44 218.216 18.6133 218.216 19.92C218.216 22.6133 218.816 24.7067 220.016 26.2C221.243 27.6667 223.083 28.4 225.536 28.4C226.069 28.4 226.589 28.3333 227.096 28.2C227.603 28.0667 228.016 27.8667 228.336 27.6V23.12H224.016V18.32H233.536V30.32C232.629 31.2 231.429 31.9467 229.936 32.56C228.443 33.1733 226.776 33.48 224.936 33.48ZM238.924 33V6.92H244.804V16.96H253.804V6.92H259.724V33H253.804V22.12H244.804V33H238.924ZM265.877 33V6.92H271.917L278.717 19.88L281.277 25.64H281.437C281.304 24.2533 281.144 22.7067 280.957 21C280.797 19.2933 280.717 17.6667 280.717 16.12V6.92H286.317V33H280.277L273.477 20L270.917 14.32H270.757C270.89 15.76 271.037 17.3067 271.197 18.96C271.384 20.6133 271.477 22.2133 271.477 23.76V33H265.877ZM302.758 33.48C299.372 33.48 296.785 32.48 294.998 30.48C293.212 28.48 292.318 25.2933 292.318 20.92V6.92H298.238V21.52C298.238 24.08 298.625 25.8667 299.398 26.88C300.172 27.8933 301.292 28.4 302.758 28.4C304.225 28.4 305.358 27.8933 306.158 26.88C306.958 25.8667 307.358 24.08 307.358 21.52V6.92H313.038V20.92C313.038 25.2933 312.158 28.48 310.398 30.48C308.665 32.48 306.118 33.48 302.758 33.48ZM324.16 33V11.88H317V6.92H337.24V11.88H330.08V33H324.16ZM134.08 70V43.92H150.4V48.88H139.96V54.12H148.84V59.04H139.96V65.04H150.8V70H134.08ZM166.874 70.48C165.221 70.48 163.661 70.2 162.194 69.64C160.727 69.0533 159.434 68.2 158.314 67.08C157.221 65.96 156.354 64.5733 155.714 62.92C155.074 61.24 154.754 59.3067 154.754 57.12C154.754 54.96 155.087 53.04 155.754 51.36C156.421 49.6533 157.314 48.2133 158.434 47.04C159.554 45.8667 160.861 44.9733 162.354 44.36C163.847 43.7467 165.421 43.44 167.074 43.44C168.754 43.44 170.261 43.7867 171.594 44.48C172.927 45.1467 174.034 45.9333 174.914 46.84L171.794 50.6C171.127 49.9867 170.421 49.4933 169.674 49.12C168.954 48.72 168.127 48.52 167.194 48.52C166.314 48.52 165.474 48.72 164.674 49.12C163.901 49.4933 163.221 50.04 162.634 50.76C162.074 51.48 161.621 52.36 161.274 53.4C160.954 54.44 160.794 55.6133 160.794 56.92C160.794 59.6133 161.367 61.7067 162.514 63.2C163.661 64.6667 165.194 65.4 167.114 65.4C168.181 65.4 169.127 65.1733 169.954 64.72C170.807 64.24 171.554 63.6533 172.194 62.96L175.314 66.64C173.127 69.2 170.314 70.48 166.874 70.48ZM188.391 70.48C186.631 70.48 185.018 70.1733 183.551 69.56C182.111 68.92 180.871 68.0133 179.831 66.84C178.791 65.6667 177.978 64.24 177.391 62.56C176.831 60.88 176.551 58.9733 176.551 56.84C176.551 54.7067 176.831 52.8133 177.391 51.16C177.978 49.48 178.791 48.08 179.831 46.96C180.871 45.8133 182.111 44.9467 183.551 44.36C185.018 43.7467 186.631 43.44 188.391 43.44C190.151 43.44 191.751 43.7467 193.191 44.36C194.658 44.9467 195.911 45.8133 196.951 46.96C197.991 48.1067 198.791 49.52 199.351 51.2C199.938 52.8533 200.231 54.7333 200.231 56.84C200.231 58.9733 199.938 60.88 199.351 62.56C198.791 64.24 197.991 65.6667 196.951 66.84C195.911 68.0133 194.658 68.92 193.191 69.56C191.751 70.1733 190.151 70.48 188.391 70.48ZM188.391 65.4C190.178 65.4 191.591 64.64 192.631 63.12C193.671 61.5733 194.191 59.48 194.191 56.84C194.191 54.2267 193.671 52.1867 192.631 50.72C191.591 49.2533 190.178 48.52 188.391 48.52C186.604 48.52 185.191 49.2533 184.151 50.72C183.111 52.1867 182.591 54.2267 182.591 56.84C182.591 59.48 183.111 61.5733 184.151 63.12C185.191 64.64 186.604 65.4 188.391 65.4ZM205.135 70V43.92H211.175L217.975 56.88L220.535 62.64H220.695C220.561 61.2533 220.401 59.7067 220.215 58C220.055 56.2933 219.975 54.6667 219.975 53.12V43.92H225.575V70H219.535L212.735 57L210.175 51.32H210.015C210.148 52.76 210.295 54.3067 210.455 55.96C210.641 57.6133 210.735 59.2133 210.735 60.76V70H205.135ZM242.336 70.48C240.576 70.48 238.963 70.1733 237.496 69.56C236.056 68.92 234.816 68.0133 233.776 66.84C232.736 65.6667 231.923 64.24 231.336 62.56C230.776 60.88 230.496 58.9733 230.496 56.84C230.496 54.7067 230.776 52.8133 231.336 51.16C231.923 49.48 232.736 48.08 233.776 46.96C234.816 45.8133 236.056 44.9467 237.496 44.36C238.963 43.7467 240.576 43.44 242.336 43.44C244.096 43.44 245.696 43.7467 247.136 44.36C248.603 44.9467 249.856 45.8133 250.896 46.96C251.936 48.1067 252.736 49.52 253.296 51.2C253.883 52.8533 254.176 54.7333 254.176 56.84C254.176 58.9733 253.883 60.88 253.296 62.56C252.736 64.24 251.936 65.6667 250.896 66.84C249.856 68.0133 248.603 68.92 247.136 69.56C245.696 70.1733 244.096 70.48 242.336 70.48ZM242.336 65.4C244.123 65.4 245.536 64.64 246.576 63.12C247.616 61.5733 248.136 59.48 248.136 56.84C248.136 54.2267 247.616 52.1867 246.576 50.72C245.536 49.2533 244.123 48.52 242.336 48.52C240.55 48.52 239.136 49.2533 238.096 50.72C237.056 52.1867 236.536 54.2267 236.536 56.84C236.536 59.48 237.056 61.5733 238.096 63.12C239.136 64.64 240.55 65.4 242.336 65.4ZM259.08 70V43.92H265.52L269.72 55.52C269.987 56.2933 270.24 57.0933 270.48 57.92C270.72 58.72 270.973 59.52 271.24 60.32H271.4C271.667 59.52 271.907 58.72 272.12 57.92C272.36 57.0933 272.613 56.2933 272.88 55.52L277 43.92H283.4V70H278.04V60.44C278.04 59.8 278.067 59.0933 278.12 58.32C278.173 57.5467 278.24 56.7733 278.32 56C278.4 55.2 278.48 54.4267 278.56 53.68C278.64 52.9067 278.72 52.2 278.8 51.56H278.64L276.52 57.76L272.8 67.72H269.56L265.84 57.76L263.76 51.56H263.6C263.68 52.2 263.76 52.9067 263.84 53.68C263.92 54.4267 264 55.2 264.08 56C264.16 56.7733 264.227 57.5467 264.28 58.32C264.333 59.0933 264.36 59.8 264.36 60.44V70H259.08ZM294.029 70V60.72L286.149 43.92H292.469L294.789 49.92C295.162 50.9067 295.509 51.8667 295.829 52.8C296.175 53.7067 296.535 54.6667 296.909 55.68H297.069C297.442 54.6667 297.802 53.7067 298.149 52.8C298.522 51.8667 298.895 50.9067 299.269 49.92L301.629 43.92H307.789L299.909 60.72V70H294.029ZM144.52 107.48C142.867 107.48 141.347 107.173 139.96 106.56C138.573 105.947 137.36 105.067 136.32 103.92C135.307 102.747 134.507 101.32 133.92 99.64C133.36 97.9333 133.08 96.0133 133.08 93.88C133.08 91.7733 133.373 89.88 133.96 88.2C134.547 86.52 135.36 85.0933 136.4 83.92C137.44 82.7467 138.667 81.8533 140.08 81.24C141.493 80.6 143.04 80.28 144.72 80.28C146.32 80.28 147.72 80.6133 148.92 81.28C150.147 81.92 151.147 82.6667 151.92 83.52L150.12 85.68C149.427 84.9333 148.64 84.3333 147.76 83.88C146.88 83.4267 145.88 83.2 144.76 83.2C143.507 83.2 142.373 83.4533 141.36 83.96C140.347 84.44 139.48 85.1467 138.76 86.08C138.04 86.9867 137.48 88.0933 137.08 89.4C136.707 90.7067 136.52 92.1733 136.52 93.8C136.52 95.4533 136.707 96.9467 137.08 98.28C137.48 99.5867 138.027 100.707 138.72 101.64C139.413 102.573 140.253 103.293 141.24 103.8C142.253 104.307 143.387 104.56 144.64 104.56C145.92 104.56 147.04 104.307 148 103.8C148.96 103.267 149.867 102.533 150.72 101.6L152.56 103.68C151.52 104.88 150.347 105.813 149.04 106.48C147.733 107.147 146.227 107.48 144.52 107.48ZM161.972 92.32L160.732 96.32H168.612L167.372 92.32C166.892 90.8533 166.438 89.4 166.012 87.96C165.585 86.4933 165.158 85 164.732 83.48H164.572C164.172 85 163.758 86.4933 163.332 87.96C162.905 89.4 162.452 90.8533 161.972 92.32ZM153.972 107L162.852 80.76H166.612L175.492 107H171.932L169.452 99H159.892L157.372 107H153.972ZM179.209 107V80.76H183.209L188.249 94.76C188.569 95.6667 188.876 96.5867 189.169 97.52C189.489 98.4267 189.809 99.3333 190.129 100.24H190.289C190.609 99.3333 190.903 98.4267 191.169 97.52C191.463 96.5867 191.769 95.6667 192.089 94.76L197.049 80.76H201.089V107H197.969V92.56C197.969 91.3867 198.023 90.0933 198.129 88.68C198.236 87.2667 198.329 85.9733 198.409 84.8H198.249L196.169 90.76L191.209 104.36H189.009L184.049 90.76L181.969 84.8H181.809C181.889 85.9733 181.969 87.2667 182.049 88.68C182.156 90.0933 182.209 91.3867 182.209 92.56V107H179.209ZM208.272 107V80.76H216.072C217.405 80.76 218.619 80.88 219.712 81.12C220.832 81.36 221.779 81.7333 222.552 82.24C223.352 82.7467 223.965 83.4133 224.392 84.24C224.845 85.04 225.072 86.0133 225.072 87.16C225.072 88.4667 224.739 89.6533 224.072 90.72C223.432 91.76 222.485 92.48 221.232 92.88V93.04C222.832 93.3333 224.125 94 225.112 95.04C226.099 96.08 226.592 97.5067 226.592 99.32C226.592 100.6 226.352 101.72 225.872 102.68C225.392 103.64 224.712 104.44 223.832 105.08C222.952 105.72 221.899 106.2 220.672 106.52C219.445 106.84 218.099 107 216.632 107H208.272ZM211.592 91.92H215.472C217.712 91.92 219.325 91.5333 220.312 90.76C221.299 89.9867 221.792 88.9333 221.792 87.6C221.792 86.08 221.272 85 220.232 84.36C219.219 83.72 217.685 83.4 215.632 83.4H211.592V91.92ZM211.592 104.36H216.152C218.419 104.36 220.179 103.947 221.432 103.12C222.685 102.267 223.312 100.96 223.312 99.2C223.312 97.5733 222.699 96.3867 221.472 95.64C220.245 94.8667 218.472 94.48 216.152 94.48H211.592V104.36ZM231.788 107V80.76H239.988C241.321 80.76 242.548 80.8933 243.668 81.16C244.814 81.4 245.788 81.8133 246.588 82.4C247.414 82.9867 248.054 83.7467 248.508 84.68C248.961 85.6133 249.188 86.76 249.188 88.12C249.188 90.1733 248.654 91.8133 247.588 93.04C246.521 94.2667 245.081 95.1067 243.268 95.56L249.948 107H246.188L239.868 95.92H235.108V107H231.788ZM235.108 93.2H239.508C241.561 93.2 243.134 92.7867 244.228 91.96C245.321 91.1067 245.868 89.8267 245.868 88.12C245.868 86.3867 245.321 85.1733 244.228 84.48C243.134 83.7867 241.561 83.44 239.508 83.44H235.108V93.2ZM254.561 107V80.76H257.881V107H254.561ZM265.069 107V80.76H271.629C275.682 80.76 278.762 81.88 280.869 84.12C282.975 86.36 284.029 89.5733 284.029 93.76C284.029 95.84 283.762 97.7067 283.229 99.36C282.695 100.987 281.909 102.373 280.869 103.52C279.829 104.64 278.549 105.507 277.029 106.12C275.509 106.707 273.762 107 271.789 107H265.069ZM268.389 104.28H271.389C274.455 104.28 276.749 103.36 278.269 101.52C279.815 99.68 280.589 97.0933 280.589 93.76C280.589 90.4267 279.815 87.88 278.269 86.12C276.749 84.36 274.455 83.48 271.389 83.48H268.389V104.28ZM299.998 107.48C298.265 107.48 296.665 107.173 295.198 106.56C293.758 105.947 292.518 105.067 291.478 103.92C290.438 102.747 289.625 101.32 289.038 99.64C288.451 97.9333 288.158 96.0133 288.158 93.88C288.158 91.7733 288.451 89.88 289.038 88.2C289.651 86.52 290.491 85.0933 291.558 83.92C292.625 82.7467 293.891 81.8533 295.358 81.24C296.851 80.6 298.465 80.28 300.198 80.28C301.105 80.28 301.931 80.3733 302.678 80.56C303.451 80.7467 304.145 81 304.758 81.32C305.398 81.6133 305.958 81.96 306.438 82.36C306.945 82.7333 307.385 83.12 307.758 83.52L305.918 85.68C305.251 84.9867 304.478 84.4 303.598 83.92C302.718 83.44 301.611 83.2 300.278 83.2C298.945 83.2 297.745 83.4533 296.678 83.96C295.611 84.44 294.705 85.1467 293.958 86.08C293.211 86.9867 292.625 88.0933 292.198 89.4C291.798 90.7067 291.598 92.1733 291.598 93.8C291.598 95.4533 291.785 96.9467 292.158 98.28C292.558 99.5867 293.118 100.707 293.838 101.64C294.585 102.573 295.491 103.293 296.558 103.8C297.651 104.307 298.905 104.56 300.318 104.56C301.251 104.56 302.131 104.427 302.958 104.16C303.811 103.867 304.505 103.48 305.038 103V96.16H299.478V93.4H308.078V104.44C307.225 105.32 306.105 106.053 304.718 106.64C303.331 107.2 301.758 107.48 299.998 107.48ZM314.366 107V80.76H329.486V83.56H317.686V91.8H327.646V94.64H317.686V104.16H329.886V107H314.366Z" fill="black"/>
</svg>
